<?xml version="1.0" encoding="utf-8"?>
<!-- Generator: Adobe Illustrator 24.1.1, SVG Export Plug-In . SVG Version: 6.00 Build 0)  -->
<svg version="1.1" id="Capa_1" xmlns="http://www.w3.org/2000/svg" xmlns:xlink="http://www.w3.org/1999/xlink" x="0px" y="0px"
	 viewBox="0 0 300 200" style="enable-background:new 0 0 300 200;" xml:space="preserve">
<style type="text/css">
	.st0{fill:#001922;}
	.st1{fill:#FFFFFF;}
</style>
<g>
	<path class="st0" d="M225.21,67.24c-7.66-5.14-18.6-3.74-28.14,2.69c1.15-2.69,2.06-5.58,2.65-8.66
		c3.36-17.42-4.44-32.77-17.75-34.96c-11.66-1.92-23.11,7-28.03,20.94c-4.92-13.94-16.39-22.86-28.04-20.94
		c-6.73,1.11-12.42,5.8-15.62,12.87c-2.88,6.37-3.63,14.21-2.11,22.1c0.58,3.02,1.48,5.93,2.65,8.66
		c-9.55-6.43-20.48-7.83-28.14-2.68c-10.5,7.06-10.28,23.31,0.51,37c4.87,6.18,11.22,10.9,17.88,13.28
		c3.94,1.41,7.84,1.91,11.44,1.54c-10.09,10.1-14.49,20.71-12.09,29.61c1.76,6.55,6.95,11.38,14.25,13.24
		c9.12,2.33,17.05-1.49,24.05-4.86c5.18-2.49,10.07-4.85,15.08-4.76l0.4,0c4.92-0.09,9.81,2.26,14.99,4.76
		c6.85,3.29,14.58,7.02,23.45,5.01c0.2-0.05,0.41-0.1,0.61-0.15c7.29-1.86,12.48-6.69,14.24-13.25c2.39-8.9-2.01-19.49-12.09-29.59
		c2.55,0.25,5.22,0.08,7.93-0.53c7.56-1.72,15.38-6.71,21.37-14.32C235.49,90.55,235.71,74.29,225.21,67.24z"/>
	<path class="st1" d="M227.75,63.36c-7.66-5.14-18.6-3.74-28.14,2.69c1.15-2.69,2.06-5.58,2.65-8.66
		c3.36-17.42-4.44-32.77-17.75-34.96c-11.66-1.92-23.11,7-28.03,20.95c-4.92-13.94-16.39-22.86-28.04-20.94
		c-6.73,1.11-12.42,5.8-15.62,12.86c-2.88,6.37-3.63,14.21-2.11,22.1c0.58,3.02,1.48,5.93,2.65,8.66
		c-9.55-6.43-20.48-7.83-28.14-2.68c-10.5,7.06-10.28,23.31,0.51,37c4.87,6.18,11.22,10.9,17.88,13.28
		c3.94,1.41,7.85,1.91,11.44,1.54c-10.09,10.1-14.49,20.71-12.09,29.61c1.76,6.55,6.95,11.38,14.25,13.24
		c9.12,2.33,17.05-1.49,24.05-4.86c5.18-2.49,10.07-4.85,15.08-4.76l0.4,0c4.92-0.09,9.81,2.26,14.99,4.76
		c6.85,3.29,14.58,7.02,23.45,5.01c0.2-0.05,0.41-0.1,0.61-0.15c7.29-1.86,12.48-6.69,14.24-13.25c2.39-8.9-2.01-19.49-12.09-29.59
		c2.55,0.25,5.22,0.08,7.93-0.53c7.56-1.72,15.38-6.71,21.37-14.32C238.04,86.67,238.25,70.42,227.75,63.36z"/>
	<g>
		<path class="st0" d="M153.95,89.18c-15.76,0.39-19.4,14.01-33.64,26.42c-20.88,18.2-16.89,33.97-4.08,37.24
			c12.81,3.27,23.7-10.07,37.6-9.82c0.04,0,0.09,0,0.13,0c0.04,0,0.09,0,0.13,0c13.9-0.25,24.8,13.08,37.6,9.81
			c12.81-3.27,16.8-19.05-4.09-37.24C173.36,103.19,169.71,89.56,153.95,89.18z"/>
		
			<ellipse transform="matrix(0.7486 -0.663 0.663 0.7486 -32.591 89.6384)" class="st0" cx="101.91" cy="87.8" rx="16.77" ry="25.57"/>
		<path class="st0" d="M191.99,78.39c-8.72,11.07-9.52,24.25-1.79,29.44c7.73,5.19,21.06,0.42,29.78-10.65
			c8.72-11.07,9.52-24.25,1.79-29.44C214.04,62.55,200.7,67.32,191.99,78.39z"/>
		
			<ellipse transform="matrix(0.9767 -0.2145 0.2145 0.9767 -8.4061 29.5412)" class="st0" cx="131.89" cy="53.5" rx="18.19" ry="26.22"/>
		<path class="st0" d="M158.02,50.54c-2.74,14.21,3.08,27.06,13.01,28.69c9.92,1.63,20.18-8.57,22.92-22.78
			c2.74-14.21-3.08-27.06-13.01-28.69C171.03,26.13,160.76,36.33,158.02,50.54z"/>
	</g>
</g>
</svg>
